HIERARCHY
ROOT Hips
{
 OFFSET 0.000000 0.000000 0.000000
 CHANNELS 6 Xposition Yposition Zposition Yrotation Xrotation Zrotation
 JOINT Chest
 {
  OFFSET 0.000000 9.581000 -0.001100
  CHANNELS 3 Yrotation Xrotation Zrotation
  JOINT Chest2
  {
   OFFSET 0.000000 9.561100 0.002200
   CHANNELS 3 Yrotation Xrotation Zrotation
   JOINT Chest3
   {
    OFFSET 0.000000 9.521100 0.000000
    CHANNELS 3 Yrotation Xrotation Zrotation
    JOINT Chest4
    {
     OFFSET 0.000000 9.511400 0.000000
     CHANNELS 3 Yrotation Xrotation Zrotation
     JOINT Neck
     {
      OFFSET 0.000000 14.375100 0.000000
      CHANNELS 3 Yrotation Xrotation Zrotation
      JOINT Head
      {
       OFFSET 0.000000 8.901200 0.004600
       CHANNELS 3 Yrotation Xrotation Zrotation
       End Site
       {
        OFFSET 0.000000 16.962200 0.002400
       }
      }
     }
     JOINT RightCollar
     {
      OFFSET -2.920100 9.518800 0.000000
      CHANNELS 3 Yrotation Xrotation Zrotation
      JOINT RightShoulder
      {
       OFFSET -13.664500 0.000000 0.000000
       CHANNELS 3 Yrotation Xrotation Zrotation
       JOINT RightElbow
       {
        OFFSET 0.000000 -29.999200 0.000000
        CHANNELS 3 Yrotation Xrotation Zrotation
        JOINT RightWrist
        {
         OFFSET 0.000000 -24.253600 0.000000
         CHANNELS 3 Yrotation Xrotation Zrotation
         End Site
         {
          OFFSET 0.000000 -17.918900 0.000000
         }
        }
       }
      }
     }
     JOINT LeftCollar
     {
      OFFSET 2.920100 9.518800 0.000000
      CHANNELS 3 Yrotation Xrotation Zrotation
      JOINT LeftShoulder
      {
       OFFSET 13.664500 0.000000 0.000000
       CHANNELS 3 Yrotation Xrotation Zrotation
       JOINT LeftElbow
       {
        OFFSET 0.000000 -29.999200 0.000000
        CHANNELS 3 Yrotation Xrotation Zrotation
        JOINT LeftWrist
        {
         OFFSET 0.000000 -24.253600 0.000000
         CHANNELS 3 Yrotation Xrotation Zrotation
         End Site
         {
          OFFSET 0.000000 -17.918900 0.000000
         }
        }
       }
      }
     }
    }
   }
  }
 }
 JOINT RightHip
 {
  OFFSET -7.797300 0.005300 0.000500
  CHANNELS 3 Yrotation Xrotation Zrotation
  JOINT RightKnee
  {
   OFFSET 0.000000 -40.663400 -0.000500
   CHANNELS 3 Yrotation Xrotation Zrotation
   JOINT RightAnkle
   {
    OFFSET 0.000000 -39.523700 -0.000900
    CHANNELS 3 Yrotation Xrotation Zrotation
    JOINT RightToe
    {
     OFFSET 0.000000 -6.418000 14.485300
     CHANNELS 3 Yrotation Xrotation Zrotation
     End Site
     {
      OFFSET 0.000000 -1.465200 6.326400
     }
    }
   }
  }
 }
 JOINT LeftHip
 {
  OFFSET 7.797300 0.005300 0.000500
  CHANNELS 3 Yrotation Xrotation Zrotation
  JOINT LeftKnee
  {
   OFFSET 0.000000 -40.663400 -0.000500
   CHANNELS 3 Yrotation Xrotation Zrotation
   JOINT LeftAnkle
   {
    OFFSET 0.000000 -39.523700 -0.000900
    CHANNELS 3 Yrotation Xrotation Zrotation
    JOINT LeftToe
    {
     OFFSET 0.000000 -6.418000 14.485300
     CHANNELS 3 Yrotation Xrotation Zrotation
     End Site
     {
      OFFSET 0.000000 -1.465200 6.326400
     }
    }
   }
  }
 }
}
MOTION
Frames: 11
Frame Time: 0.008333
0.000000 86.422400 0.000000 0.000000 -5.767877 0.000000 0.000000 11.653817 0.000000 0.000000 -5.885947 0.000000 0.000000 -0.000000 0.000000 0.000000 -0.000000 0.000000 0.000000 12.528835 0.000000 0.000000 0.711642 0.000000 0.000000 -0.000000 0.000000 0.000000 0.000000 -90.000000 0.000000 -2.309062 0.000000 0.000000 2.309062 0.000000 0.000000 -0.000000 0.000000 0.000000 -0.000000 90.000000 0.000000 -2.309062 0.000000 0.000000 2.309062 0.000000 0.000000 8.520406 0.000000 0.000000 1.905762 0.000000 -0.000000 -4.658285 0.000000 0.000000 -0.000000 0.000000 0.000000 8.520406 0.000000 0.000000 1.905762 0.000000 -0.000000 -4.658285 0.000000 0.000000 -0.000000 0.000000
-14.432560 126.916431 24.717560 -168.624502 -49.352077 -2.091699 -3.255323 24.906918 0.466354 -0.538186 3.999372 0.214309 -0.837618 6.333561 0.261307 -2.710176 20.651467 0.518889 5.564225 20.049419 -1.284570 6.308638 -4.262262 -2.667934 -1.929897 1.914923 -2.084174 2.398566 0.222160 -4.738610 -71.725541 -43.605217 129.565849 -10.279932 -24.286750 -26.446787 -4.405620 -1.847500 2.529765 -4.957312 1.718679 5.257476 51.287090 -28.711576 -113.173337 22.828488 -41.195031 11.418110 -4.380919 -23.386773 -5.802126 -7.216994 78.641443 -6.513104 6.561405 -14.784525 2.756579 -0.000146 -0.000012 -0.000065 6.004920 6.334351 1.064119 128.471411 65.445063 147.840910 6.286685 12.535902 0.889036 -0.001005 0.000073 -0.000445
-14.433923 126.914698 24.718652 -168.563818 -49.328815 -2.141793 -3.307579 24.925263 0.508538 -0.549793 4.008759 0.214206 -0.848366 6.349858 0.271445 -2.737587 20.670698 0.547408 5.700568 20.041051 -1.304249 6.465138 -4.261323 -2.722190 -2.202857 1.764935 -2.429452 2.297276 0.033455 -4.427751 -70.862183 -42.477983 129.043825 -10.809624 -24.595428 -26.900771 -4.294588 -2.101011 2.732296 -4.829473 1.606528 4.975372 50.850446 -27.395140 -113.333294 23.498260 -41.506360 11.475950 -4.418086 -23.403624 -5.797016 -7.191950 78.635432 -6.489549 6.558044 -14.787656 2.757028 0.000224 -0.000802 0.000099 5.999243 6.284905 1.074883 128.487687 65.434377 147.881964 6.291726 12.552586 0.895285 0.002928 -0.009124 0.001297
-14.435637 126.915582 24.717285 -168.554005 -49.325443 -2.156964 -3.330426 24.962686 0.544112 -0.560342 4.011394 0.214625 -0.859103 6.362972 0.280366 -2.766168 20.685572 0.572090 5.869492 20.055673 -1.314095 6.656267 -4.231885 -2.773649 -2.473377 1.646338 -2.766093 2.135767 -0.178774 -4.122295 -70.037468 -41.392617 128.608235 -11.284396 -24.858496 -27.281736 -4.182496 -2.336270 2.940021 -4.687393 1.493390 4.683799 50.475822 -26.170765 -113.513668 24.119045 -41.739261 11.475006 -4.398284 -23.401008 -5.794694 -7.215452 78.630992 -6.496534 6.550156 -14.788967 2.765209 0.001353 -0.000803 0.000599 6.002681 6.273615 1.085914 128.492355 65.434090 147.893069 6.323680 12.607871 0.781303 0.003149 0.001032 0.001395
-14.438689 126.916436 24.715903 -168.542477 -49.320273 -2.167960 -3.391624 25.019179 0.576801 -0.528568 3.969489 0.178177 -0.887259 6.389443 0.301636 -2.796953 20.696250 0.591214 6.071931 20.092331 -1.315541 6.883646 -4.174569 -2.824128 -2.732623 1.554461 -3.089224 1.916745 -0.400111 -3.828852 -69.302816 -40.415726 128.276802 -11.692655 -25.071442 -27.571661 -4.065909 -2.548307 3.148437 -4.521584 1.376908 4.393533 50.158662 -25.072136 -113.708909 24.676637 -41.888988 11.420917 -4.392306 -23.400540 -5.793666 -7.220471 78.625131 -6.501221 6.541745 -14.796158 2.767389 0.000302 -0.001688 0.000134 6.004784 6.262212 1.093458 128.496602 65.437216 147.894808 6.353261 12.642708 0.711500 0.001091 0.004283 0.000484
-14.441443 126.916241 24.715175 -168.525407 -49.305076 -2.185936 -3.438504 25.030582 0.586790 -0.512266 3.961268 0.173258 -0.920829 6.410495 0.317922 -2.829768 20.703467 0.605906 6.305205 20.145836 -1.313105 7.145512 -4.095201 -2.878021 -2.977173 1.490569 -3.400080 1.646132 -0.626220 -3.550530 -68.709872 -39.619438 128.063545 -12.030631 -25.229158 -27.755874 -3.941929 -2.728836 3.353067 -4.331846 1.245193 4.112281 49.915839 -24.135290 -113.906293 25.171171 -41.941367 11.315693 -4.390510 -23.410439 -5.791255 -7.225638 78.620156 -6.503005 6.531896 -14.800627 2.769944 -0.000963 -0.002491 -0.000427 6.013567 6.238068 1.108415 128.510289 65.438259 147.912934 6.371120 12.655164 0.678208 -0.000370 0.003150 -0.000164
-14.444427 126.916000 24.714328 -168.511238 -49.288621 -2.201750 -3.466050 25.027361 0.593434 -0.582452 4.005260 0.205268 -0.877663 6.379929 0.292968 -2.879510 20.714284 0.623764 6.565102 20.211758 -1.311292 7.438612 -3.998728 -2.939245 -3.198211 1.455837 -3.696447 1.332899 -0.850052 -3.296101 -68.310267 -39.057200 127.981433 -12.293624 -25.316294 -27.832062 -3.808563 -2.877601 3.544997 -4.122733 1.095823 3.849319 49.769721 -23.386490 -114.093541 25.596104 -41.866355 11.169547 -4.394493 -23.423493 -5.791250 -7.213058 78.616915 -6.488456 6.530158 -14.800291 2.768091 -0.000191 -0.002984 -0.000084 6.022500 6.220598 1.124510 128.528515 65.437717 147.921729 6.381877 12.626422 0.712515 -0.006635 0.000290 -0.002940
-14.446084 126.915237 24.713575 -168.502002 -49.267362 -2.222245 -3.487839 25.019912 0.608291 -0.613728 4.013166 0.212714 -0.890861 6.384017 0.296820 -2.872182 20.705281 0.613597 6.813998 20.294810 -1.274704 7.757636 -3.887221 -3.008543 -3.433762 1.465309 -3.942700 0.991730 -1.064217 -3.071163 -68.141834 -38.758146 128.035909 -12.478094 -25.337361 -27.798558 -3.715119 -2.986238 3.752714 -3.895280 0.934695 3.610379 49.717952 -22.832910 -114.264332 25.920348 -41.654810 10.999853 -4.398059 -23.441816 -5.782897 -7.197796 78.613095 -6.478230 6.554324 -14.793400 2.769891 0.000682 -0.002930 0.000302 6.032327 6.203266 1.148197 128.522821 65.446757 147.927367 6.371213 12.607169 0.725711 -0.002411 -0.007881 -0.001068
-14.448728 126.915419 24.711992 -168.486200 -49.253626 -2.243162 -3.542065 25.025296 0.611963 -0.624026 4.009132 0.211876 -0.919868 6.393311 0.305811 -2.924257 20.706289 0.620789 7.123002 20.373748 -1.297864 8.092349 -3.765146 -3.084678 -3.579594 1.485857 -4.224626 0.645898 -1.264473 -2.873044 -68.231690 -38.725421 128.228696 -12.583072 -25.298215 -27.659204 -3.553720 -3.092311 3.891083 -3.652441 0.767902 3.400280 49.757397 -22.473460 -114.422736 26.111663 -41.333130 10.825487 -4.376394 -23.447939 -5.785168 -7.240694 78.605883 -6.504202 6.564454 -14.782437 2.766240 -0.000538 -0.000993 -0.000238 6.033900 6.198716 1.167681 128.532189 65.459215 147.941109 6.370993 12.584894 0.727333 -0.001096 -0.011597 -0.000485
-14.446735 126.915280 24.709880 -168.472279 -49.236525 -2.290250 -3.635268 25.031465 0.627427 -0.586555 4.000662 0.205495 -0.900727 6.388885 0.301076 -3.015143 20.715902 0.647495 7.436049 20.458329 -1.324467 8.433625 -3.638926 -3.165969 -3.705259 1.533977 -4.492339 0.319054 -1.446971 -2.699497 -68.592975 -38.935779 128.556490 -12.620049 -25.191024 -27.413380 -3.401195 -3.182235 4.007230 -3.404757 0.604961 3.226305 49.908300 -22.312898 -114.574026 26.160112 -40.919394 10.659253 -4.377910 -23.454041 -5.755541 -7.235191 78.598830 -6.480705 6.564956 -14.777565 2.766424 -0.000556 -0.001795 -0.000246 6.046687 6.206054 1.227814 128.534841 65.470793 147.957507 6.357608 12.528845 0.721315 0.000431 -0.002457 0.000191
-14.448042 126.914713 24.708501 -168.458838 -49.217236 -2.315883 -3.662000 25.018946 0.638871 -0.590446 4.001119 0.206611 -0.907157 6.389732 0.303383 -3.080046 20.720892 0.662293 7.731972 20.542322 -1.335619 8.775966 -3.514003 -3.250492 -3.831572 1.602081 -4.721897 0.027281 -1.604114 -2.553853 -69.225376 -39.363150 129.013425 -12.608228 -24.999017 -27.043663 -3.282779 -3.262723 4.121388 -3.170849 0.450545 3.087220 50.189166 -22.349856 -114.717343 26.060289 -40.417212 10.496998 -4.385903 -23.467905 -5.744523 -7.215658 78.597340 -6.456785 6.562413 -14.775764 2.765953 0.000388 -0.002485 0.000172 6.041273 6.196228 1.248312 128.547624 65.467351 147.975562 6.341590 12.496940 0.706155 0.001014 -0.002918 0.000449
